{"title":"Rock Lee and His Ninja Pals","uid":11685286,"size":1402916519,"categoryP":"video","categoryS":"tv_shows","magnet":"?xt=urn:btih:87c434d224133dce04fa5f650b2e2d41bee8042e&amp;dn=Rock+Lee+and+His+Ninja+Pals&amp;tr=udp%3A%2F%2Ftracker.openbittorrent.com%3A80&amp;tr=udp%3A%2F%2Fopen.demonii.com%3A1337&amp;tr=udp%3A%2F%2Ftracker.coppersurfer.tk%3A6969&amp;tr=udp%3A%2F%2Fexodus.desync.com%3A6969","seeders":1,"leechers":0,"uploader":"p7trick","files":14,"time":1423293490,"description":"downloaded from watchcartoononline\n\nRock Lee and His Ninja Pals ENGLISH DUBBED ep 1-13\n\n_________________________________________________________\n\nFormat : Flash Video\nFile size : 110 MiB\nDuration : 24mn 26s\nOverall bit rate : 631 Kbps\n\n\nVideo\nFormat : AVC\nFormat/Info : Advanced Video Codec\nFormat profile : &lt;a class=&quot;__cf_email__&quot; href=&quot;/cdn-cgi/l/email-protection&quot; data-cfemail=&quot;f1b9989699b1bdc2dfc1&quot;&gt;[email&amp;#160;protected]&lt;/a&gt;&lt;script cf-hash='f9e31' type=&quot;text/javascript&quot;&gt;\n/* &lt;![CDATA[ */!function(){try{var t=&quot;currentScript&quot;in document?document.currentScript:function(){for(var t=document.getElementsByTagName(&quot;script&quot;),e=t.length;e--;)if(t[e].getAttribute(&quot;cf-hash&quot;))return t[e]}();if(t&amp;&amp;t.previousSibling){var e,r,n,i,c=t.previousSibling,a=c.getAttribute(&quot;data-cfemail&quot;);if(a){for(e=&quot;&quot;,r=parseInt(a.substr(0,2),16),n=2;a.length-n;n+=2)i=parseInt(a.substr(n,2),16)^r,e+=String.fromCharCode(i);e=document.createTextNode(e),c.parentNode.replaceChild(e,c)}}}catch(u){}}();/* ]]&gt; */&lt;/script&gt;\nFormat settings, CABAC : Yes\nFormat settings, ReFrames : 5 frames\nCodec ID : 7\nDuration : 24mn 26s\nBit rate : 483 Kbps\nWidth : 852 pixels\nHeight : 480 pixels\nDisplay aspect ratio : 16:9\nFrame rate mode : Constant\nFrame rate : 23.976 fps\nColor space : YUV\nChroma subsampling : 4:2:0\nBit depth : 8 bits\nScan type : Progressive\nBits/(Pixel*Frame) : 0.049\nStream size : 86.8 MiB (79%)\n\n\n\nAudio\nFormat : AAC\nFormat/Info : Advanced Audio Codec\nFormat profile : LC\nCodec ID : 10\nDuration : 24mn 26s\nBit rate : 126 Kbps\nChannel(s) : 2 channels\nChannel positions : Front: L R\nSampling rate : 44.1 KHz\nCompression mode : Lossy\nStream size : 23.2 MiB (21%)\nLanguage : English\n\n_________________________________________________________\n\nSummary:\nThe story focuses on the strange antics of Team Guy as they work on becoming great ninjas, a job which often requires saving Lee from himself.\n\n\n\nFor updates/requests:\nTwitter - @p7tricktorrent\nFacebook - /p7tricktorrent\n_________________________________________________________\n\nSEED!\n\nshare ratio:\n&quot;Scumbag = 0.1:1\nLeecher = 0.999:1\nMinimum = 1:1\nGood = 3:1\nGreat = 5:1\nAwesome = 10:1\n1337 = 100:1&quot;","torrent":{"xt":"urn:btih:87c434d224133dce04fa5f650b2e2d41bee8042e","amp;dn":"Rock+Lee+and+His+Ninja+Pals","amp;tr":["udp%3A%2F%2Ftracker.openbittorrent.com%3A80","udp%3A%2F%2Fopen.demonii.com%3A1337","udp%3A%2F%2Ftracker.coppersurfer.tk%3A6969","udp%3A%2F%2Fexodus.desync.com%3A6969"],"infoHash":"87c434d224133dce04fa5f650b2e2d41bee8042e","infoHashBuffer":{"type":"Buffer","data":[135,196,52,210,36,19,61,206,4,250,95,101,11,46,45,65,190,232,4,46]},"announce":[],"urlList":[]}}